# xmcd
# 
# Track frame offsets:
#     150
#     19412
#     34472
#     62011
#     78934
#     91655
#     105305
#     117583
#     143975
#     168729
#     181114
#     215731
#     229644
#     268982
#     288083
# 
# Disc length: 4024
# 
# Revision: 2
# Processed by: cddbd v1.5.2PL0 Copyright (c) Steve Scherf et al.
# Submitted via: fre:ac v1.0.31
# 
DISCID=d50fb60f
DTITLE=Various Artist - Cuban Gold CD1
DYEAR=2010
DGENRE=Ethnic
TTITLE0=Compay Segundo Y Su Grupo - Chan chan
TTITLE1=Beny Moré - Que bueno baila usted
TTITLE2=Orquesta Maravillas De Florida - Al excellente tresero
TTITLE3=Omara Portuondo and Adalberto Al Varez Y su Son - Yo como candela
TTITLE4=Tito Gomez Con - Frensi
TTITLE5=Orquesta América - Clases de cha cha cha
TTITLE6=Caridad Hierrezuelo - Babalu aye
TTITLE7=Paulito F.G - Son de un amigo
TTITLE8=Juan Formell Y Los Van Van - La habana no aguanta mas
TTITLE9=Conjunto Roberto Faz - Suenta tu bongo
TTITLE10=El Guayabero - Como baila marieta
TTITLE11=Miguelito Cuni Con El Conjunto Chapottin - Alto songo
TTITLE12=Irakere - Homenage a Beny
TTITLE13=Septeto Turquino - Son para los rumberos
TTITLE14=Perez Prado - Mambo No. 5
EXTD=YEAR: 2010
EXTT0=
EXTT1=
EXTT2=
EXTT3=
EXTT4=
EXTT5=
EXTT6=
EXTT7=
EXTT8=
EXTT9=
EXTT10=
EXTT11=
EXTT12=
EXTT13=
EXTT14=
PLAYORDER=
